<svg width="1280" height="1280" xmlns="http://www.w3.org/2000/svg"><path fill="#CEDBEE" stroke="#CEDBEE" opacity=".706" d="m605.5 0 14.5.5-14.5.5V0ZM660.5 0l14.5.5-14.5.5V0ZM590.5 1l8.5.5-8.5.5V1ZM681.5 1l8.5.5-8.5.5V1ZM578.5 2l7.5.5-7.5.5V2ZM695.5 2l6.5.5-6.5.5V2ZM568.5 3l6.5.5-6.5.5V3ZM705.5 3l6.5.5-6.5.5V3ZM560.5 4l5.5.5-5.5.5V4ZM715.5 4l4.5.5-4.5.5V4ZM552.5 5l5.5.5-5.5.5V5ZM723.5 5l4.5.5-4.5.5V5ZM545.5 6l4.5.5-4.5.5V6ZM730.5 6l4.5.5-4.5.5V6ZM539.5 7l3.5.5-3.5.5V7ZM737.5 7l3.5.5-3.5.5V7ZM532.5 8l4.5.5-4.5.5V8ZM743.5 8l3.5.5-3.5.5V8ZM527.5 9l3.5.5-3.5.5V9ZM749.5 9l3.5.5-3.5.5V9ZM521.5 10l3.5.5-3.5.5v-1ZM755.5 10l3.5.5-3.5.5v-1ZM516.5 11l3.5.5-3.5.5v-1ZM760.5 11l3.5.5-3.5.5v-1ZM511.5 12l3.5.5-3.5.5v-1ZM766.5 12l2.5.5-2.5.5v-1ZM506.5 13l3.5.5-3.5.5v-1ZM770.5 13l3.5.5-3.5.5v-1ZM502.5 14l2.5.5-2.5.5v-1ZM775.5 14l2.5.5-2.5.5v-1ZM497.5 15l2.5.5-2.5.5v-1ZM780.5 15l2.5.5-2.5.5v-1ZM493.5 16l2.5.5-2.5.5v-1ZM784.5 16l2.5.5-2.5.5v-1ZM489.5 17l2.5.5-2.5.5v-1ZM788.5 17l2.5.5-2.5.5v-1ZM473.5 21l2.5.5-2.5.5v-1ZM804.5 21l2.5.5-2.5.5v-1ZM469.5 22l2.5.5-2.5.5v-1ZM808.5 22l2.5.5-2.5.5v-1ZM462.5 24l2.5.5-2.5.5v-1ZM815.5 24l2.5.5-2.5.5v-1ZM455.5 26l2.5.5-2.5.5v-1ZM825.5 27l2.5.5-2.5.5v-1ZM439.5 31l2.5.5-7.5 2.5v-1l5-2ZM419.5 38l1.5.5-3.5 1.5v-1l2-1ZM859.5 38l3.5 1.5-1.5.5-2-2ZM411.5 41l1.5.5-3.5 1.5v-1l2-1ZM867.5 41l3.5 1.5-1.5.5-2-2ZM872.5 43l3.5 1.5-1.5.5-2-2ZM877.5 45l3.5 1.5-1.5.5-2-2ZM396.5 47l1.5.5-3.5 1.5v-1l2-1ZM882.5 47l3.5 1.5-1.5.5-2-2ZM391.5 49l1.5.5-3.5 1.5v-1l2-1ZM889.5 50l3.5 1.5-1.5.5-2-2ZM384.5 52l1.5.5-5.5 2.5v-1l4-2ZM896.5 53l3.5 1.5-1.5.5-2-2ZM375.5 56l1.5.5-5.5 2.5v-1l4-2ZM905.5 57l5.5 2.5-1.5.5-4-2v-1ZM358.5 64l1.5.5-12.5 6.5 1-2 10-5ZM940.5 74l7.5 4.5-1.5-.5q-5.6-.8-6-4ZM337.5 75l-1 2-4 2 1-2 4-2ZM328.5 80l-1 2-4 2 1-2 4-2ZM951.5 80l5.5 3.5-1.5-.5q-4-.5-4-3ZM321.5 84l-1 2-4 2 1-2 4-2ZM958.5 84l3.5 2.5-1.5-.5-2-2ZM314.5 88l-1 2-2 1 1-2 2-1ZM965.5 88l3.5 2.5-1.5-.5-2-2ZM309.5 91l-1 2-2 1 1-2 2-1ZM970.5 91l6.5 4.5-1.5-.5q-4.6-1.2-5-4ZM304.5 94l-1 2-5 3 1-2 5-3ZM978.5 96l6.5 4.5-1.5-.5q-4.6-1.2-5-4ZM296.5 99l-1 2 1-2ZM293.5 101l-1 2-15 10 2-3 14-9ZM986.5 101l1 2-1-2ZM989.5 103l10.5 7.5-2.5-1.5-7-4-1-2ZM1001.5 111l1 2-1-2ZM275.5 113l-1 2 1-2ZM1004.5 113l1 2-1-2ZM272.5 115l-2 3-3 2 2-3 3-2ZM1007.5 115l5.5 4.5-2.5-1.5-3-3ZM265.5 120l-2 3-16 12 3-4 15-11ZM1014.5 120l2 3-2-3ZM1018.5 123l14.5 11.5-3.5-2.5-9-6-2-3ZM245.5 135l-3 4-5 4 4-5 4-3ZM1034.5 135l3 4-3-4ZM1039.5 139l3 4-3-4ZM235.5 143l-4 5-13 11 6-7 11-9ZM1044.5 143l10.5 9.5-5.5-4.5-5-5ZM1056.5 153l15.5 14.5-8.5-7.5-7-7ZM216.5 159l-8 9 8-9ZM206.5 168l-38 39 38-39ZM1073.5 168l38 39-38-39ZM167.5 208l-7.5 8.5-6.5 7.5 5.5-6.5 8.5-9.5ZM1112.5 208l8 9-8-9ZM1121.5 218l15.5 17.5-5-4-10.5-13.5ZM152.5 225l-4.5 5.5-4.5 5.5 3.5-4.5 5.5-6.5ZM142.5 237l-3 4 3-4ZM1137.5 237l7.5 8.5-4-3-3.5-5.5ZM138.5 242l-3 4 3-4ZM134.5 247l-2.5 3.5-8.5 11.5 1.5-2.5 9.5-12.5ZM1145.5 247l14.5 18.5-3-2-11.5-16.5ZM122.5 263l-2 3 2-3ZM119.5 267l-1.5 2.5-2.5 3.5 1.5-2.5 2.5-3.5ZM1160.5 267l4.5 5.5-3-2-1.5-3.5ZM114.5 274l-1 2 1-2ZM1165.5 274l1 2-1-2ZM112.5 277l-1 2 1-2ZM1167.5 277l11.5 16.5-2-1-9.5-15.5ZM110.5 280l-1.5 2.5-5.5 8.5.5-1.5 6.5-9.5ZM102.5 292l-1 2 1-2ZM100.5 295l-.5 1.5-3.5 5.5.5-1.5 3.5-5.5ZM1179.5 295l1 2-1-2ZM1181.5 298l4.5 6.5-2-1-2.5-5.5ZM95.5 303l-.5 1.5-3.5 5.5.5-1.5 3.5-5.5ZM1186.5 306l2.5 3.5-2-1-.5-2.5ZM90.5 311l-.5 1.5-1.5 2.5.5-1.5 1.5-2.5ZM1189.5 311l2.5 3.5-2-1-.5-2.5ZM1192.5 316l3.5 5.5-2-1-1.5-4.5ZM86.5 318l-.5 1.5-1.5 2.5.5-1.5 1.5-2.5ZM83.5 323l-.5 1.5-2.5 4.5.5-1.5 2.5-4.5ZM1196.5 323l3.5 5.5-2-1-1.5-4.5ZM78.5 332l-.5 1.5-3.5 6.5.5-1.5 3.5-6.5ZM1201.5 332l3.5 5.5-2-1-1.5-4.5ZM1209.5 347l6.5 12.5h-1l-5.5-12.5ZM59.5 369l.5 1.5-2.5 4.5-.5-1.5 2.5-4.5ZM1221.5 371l2.5 5.5h-1l-1.5-5.5ZM54.5 380l.5 1.5-1.5 2.5-.5-1.5 1.5-2.5ZM1225.5 380l2.5 5.5h-1l-1.5-5.5ZM51.5 387l.5 1.5-1.5 2.5-.5-1.5 1.5-2.5ZM1229.5 389l1.5 3.5h-1l-.5-3.5ZM48.5 394l.5 1.5-1.5 2.5-.5-1.5 1.5-2.5ZM1231.5 394l1.5 3.5h-1l-.5-3.5ZM46.5 399l.5 1.5-1.5 2.5-.5-1.5 1.5-2.5ZM44.5 404l.5 1.5-1.5 2.5-.5-1.5 1.5-2.5ZM42.5 409l.5 1.5-1.5 2.5-.5-1.5 1.5-2.5ZM1237.5 409l1.5 3.5h-1l-.5-3.5ZM39.5 417l.5 1.5-1.5 2.5-.5-1.5 1.5-2.5ZM1240.5 417l1.5 3.5h-1l-.5-3.5ZM1246.5 434l2.5 7.5h-1l-1.5-7.5ZM27.5 452l.5 2.5h-1l.5-2.5ZM1253.5 455l.5 2.5h-1l.5-2.5ZM24.5 462l.5 2.5h-1l.5-2.5ZM1255.5 462l.5 2.5h-1l.5-2.5ZM22.5 469l.5 2.5h-1l.5-2.5ZM1257.5 469l.5 2.5h-1l.5-2.5ZM21.5 473l.5 2.5h-1l.5-2.5ZM1258.5 473l.5 2.5h-1l.5-2.5ZM17.5 489l.5 2.5h-1l.5-2.5ZM1262.5 489l.5 2.5h-1l.5-2.5ZM16.5 493l.5 2.5h-1l.5-2.5ZM1263.5 493l.5 2.5h-1l.5-2.5ZM15.5 497l.5 2.5h-1l.5-2.5ZM1264.5 497l.5 2.5h-1l.5-2.5ZM14.5 502l.5 2.5h-1l.5-2.5ZM1265.5 502l.5 2.5h-1l.5-2.5ZM13.5 506l.5 3.5h-1l.5-3.5ZM1266.5 506l.5 3.5h-1l.5-3.5ZM12.5 511l.5 2.5h-1l.5-2.5ZM1267.5 511l.5 3.5h-1l.5-3.5ZM11.5 516l.5 3.5h-1l.5-3.5ZM1268.5 516l.5 3.5h-1l.5-3.5ZM10.5 521l.5 3.5h-1l.5-3.5ZM1269.5 521l.5 3.5h-1l.5-3.5ZM9.5 527l.5 3.5H9l.5-3.5ZM1270.5 527l.5 3.5h-1l.5-3.5ZM1271.5 532l.5 4.5h-1l.5-4.5ZM8.5 533l.5 3.5H8l.5-3.5ZM7.5 539l.5 3.5H7l.5-3.5ZM1272.5 539l.5 3.5h-1l.5-3.5ZM6.5 545l.5 4.5H6l.5-4.5ZM1273.5 545l.5 4.5h-1l.5-4.5ZM5.5 552l.5 4.5H5l.5-4.5ZM1274.5 552l.5 5.5h-1l.5-5.5ZM4.5 560l.5 4.5H4l.5-4.5ZM1275.5 560l.5 5.5h-1l.5-5.5ZM3.5 568l.5 6.5H3l.5-6.5ZM1276.5 568l.5 6.5h-1l.5-6.5ZM2.5 578l.5 6.5H2l.5-6.5ZM1277.5 578l.5 7.5h-1l.5-7.5ZM1.5 590l.5 8.5H1l.5-8.5ZM1278.5 590l.5 8.5h-1l.5-8.5ZM.5 605l.5 14.5H0L.5 605ZM1279.5 605l.5 14.5h-1l.5-14.5ZM.5 660l.5 14.5H0L.5 660ZM1279.5 660l.5 14.5h-1l.5-14.5ZM1.5 681l.5 8.5H1l.5-8.5ZM1278.5 681l.5 8.5h-1l.5-8.5ZM2.5 694l.5 7.5H2l.5-7.5ZM1277.5 695l.5 6.5h-1l.5-6.5ZM3.5 705l.5 6.5H3l.5-6.5ZM1276.5 705l.5 6.5h-1l.5-6.5ZM4.5 714l.5 5.5H4l.5-5.5ZM1275.5 715l.5 4.5h-1l.5-4.5ZM5.5 722l.5 5.5H5l.5-5.5ZM1274.5 723l.5 4.5h-1l.5-4.5ZM6.5 730l.5 4.5H6l.5-4.5ZM1273.5 730l.5 4.5h-1l.5-4.5ZM7.5 737l.5 3.5H7l.5-3.5ZM1272.5 737l.5 3.5h-1l.5-3.5ZM8.5 743l.5 4.5H8l.5-4.5ZM1271.5 743l.5 3.5h-1l.5-3.5ZM9.5 749l.5 3.5H9l.5-3.5ZM1270.5 749l.5 3.5h-1l.5-3.5ZM10.5 755l.5 3.5h-1l.5-3.5ZM1269.5 755l.5 3.5h-1l.5-3.5ZM11.5 760l.5 3.5h-1l.5-3.5ZM1268.5 760l.5 3.5h-1l.5-3.5ZM12.5 765l.5 3.5h-1l.5-3.5ZM1267.5 765l.5 3.5h-1l.5-3.5ZM13.5 770l.5 3.5h-1l.5-3.5ZM1266.5 770l.5 3.5h-1l.5-3.5ZM14.5 775l.5 2.5h-1l.5-2.5ZM1265.5 775l.5 2.5h-1l.5-2.5ZM15.5 780l.5 2.5h-1l.5-2.5ZM1264.5 780l.5 2.5h-1l.5-2.5ZM16.5 784l.5 2.5h-1l.5-2.5ZM1263.5 784l.5 2.5h-1l.5-2.5ZM17.5 788l.5 2.5h-1l.5-2.5ZM1262.5 788l.5 2.5h-1l.5-2.5ZM21.5 804l.5 2.5h-1l.5-2.5ZM1258.5 804l.5 2.5h-1l.5-2.5ZM22.5 808l.5 2.5h-1l.5-2.5ZM1257.5 808l.5 2.5h-1l.5-2.5ZM24.5 815l.5 2.5h-1l.5-2.5ZM1255.5 815l.5 2.5h-1l.5-2.5ZM26.5 822l.5 2.5h-1l.5-2.5ZM1252.5 825l.5 2.5h-1l.5-2.5ZM31.5 838l2.5 7.5h-1l-1.5-7.5ZM38.5 859l1.5 3.5h-1l-.5-3.5ZM1241.5 859l.5 1.5-1.5 2.5-.5-1.5 1.5-2.5ZM41.5 867l1.5 3.5h-1l-.5-3.5ZM1238.5 867l.5 1.5-1.5 2.5-.5-1.5 1.5-2.5ZM1236.5 872l.5 1.5-1.5 2.5-.5-1.5 1.5-2.5ZM1234.5 877l.5 1.5-1.5 2.5-.5-1.5 1.5-2.5ZM47.5 882l1.5 3.5h-1l-.5-3.5ZM1232.5 882l.5 1.5-1.5 2.5-.5-1.5 1.5-2.5ZM49.5 887l1.5 3.5h-1l-.5-3.5ZM1229.5 889l.5 1.5-1.5 2.5-.5-1.5 1.5-2.5ZM52.5 894l2.5 5.5h-1l-1.5-5.5ZM1226.5 896l.5 1.5-1.5 2.5-.5-1.5 1.5-2.5ZM56.5 903l2.5 5.5h-1l-1.5-5.5ZM1222.5 905l.5 1.5-2.5 4.5-.5-1.5 2.5-4.5ZM64.5 920l6.5 12.5-2-1-5-10 .5-1.5ZM1205.5 940l-.5 1.5-3.5 6.5.5-1.5 3.5-6.5ZM75.5 942l3.5 5.5-2-1-1.5-4.5ZM80.5 951l3.5 5.5-2-1-1.5-4.5ZM1199.5 951l-.5 1.5-2.5 4.5.5-1.5 2.5-4.5ZM84.5 958l3.5 5.5-2-1-1.5-4.5ZM1195.5 958l-.5 1.5-1.5 2.5.5-1.5 1.5-2.5ZM88.5 965l2.5 3.5-2-1-.5-2.5ZM1191.5 965l-.5 1.5-1.5 2.5.5-1.5 1.5-2.5ZM91.5 970l2.5 3.5-2-1-.5-2.5ZM1188.5 970l-.5 1.5-3.5 5.5.5-1.5 3.5-5.5ZM94.5 975l4.5 6.5-2-1-2.5-5.5ZM1183.5 978l-.5 1.5-3.5 5.5.5-1.5 3.5-5.5ZM99.5 983l1 2-1-2ZM101.5 986l11.5 16.5-3-2-8.5-14.5ZM1178.5 986l-1 2 1-2ZM1176.5 989l-.5 1.5-6.5 9.5 1.5-2.5 5.5-8.5ZM1168.5 1001l-1 2 1-2ZM113.5 1004l1 2-1-2ZM1166.5 1004l-1 2 1-2ZM115.5 1007l4.5 5.5-3-2-1.5-3.5ZM1164.5 1007l-1.5 2.5-2.5 3.5 1.5-2.5 2.5-3.5ZM120.5 1014l14.5 18.5-4-3-10.5-15.5ZM1159.5 1014l-2 3 2-3ZM1156.5 1018l-1.5 2.5-9.5 12.5 2.5-3.5 8.5-11.5ZM135.5 1034l7.5 8.5-5-4-2.5-4.5ZM1144.5 1034l-3 4 3-4ZM1140.5 1039l-3 4 3-4ZM143.5 1044l15.5 17.5-7-6-8.5-11.5ZM1136.5 1044l-3.5 4.5-5.5 6.5 4.5-5.5 4.5-5.5ZM1126.5 1056l-5.5 6.5-8.5 9.5 7.5-8.5 6.5-7.5ZM159.5 1063l8 9-8-9ZM168.5 1073l38 39-38-39ZM1111.5 1073l-38 39 38-39ZM208.5 1112l15.5 14.5-6.5-5.5-9-9ZM1071.5 1112l-8 9 8-9ZM1061.5 1121l-6 7-11 9 4-5 13-11ZM225.5 1127l10.5 9.5-4.5-3.5-6-6ZM237.5 1137l3 4-3-4ZM1042.5 1137l-4 5-4 3 3-4 5-4ZM242.5 1141l3 4-3-4ZM247.5 1145l14.5 11.5-2.5-1.5q-8.6-3.9-12-10ZM1032.5 1145l-3 4-15 11 2-3 16-12ZM263.5 1157l2 3-2-3ZM267.5 1160l5.5 4.5-2.5-1.5-3-3ZM1012.5 1160l-2 3-3 2 2-3 3-2ZM274.5 1165l1 2-1-2ZM1005.5 1165l-1 2 1-2ZM277.5 1167l1 2-1-2ZM1002.5 1167l-2 3-14 9 1-2 15-10ZM280.5 1169l10.5 7.5-1.5-.5q-7.1-2.3-9-7ZM292.5 1177l1 2-1-2ZM295.5 1179l1 2-1-2ZM984.5 1179l-1 2 1-2ZM298.5 1181l3.5 2.5-1.5-.5-2-2ZM981.5 1181l-1 2-5 3 1-2 5-3ZM303.5 1184l6.5 4.5-1.5-.5q-4.6-1.2-5-4ZM973.5 1186l-1 2-2 1 1-2 2-1ZM311.5 1189l3.5 2.5-1.5-.5-2-2ZM968.5 1189l-1 2-2 1 1-2 2-1ZM963.5 1192l-1 2-4 2 1-2 4-2ZM318.5 1193l3.5 2.5-1.5-.5-2-2ZM323.5 1196l5.5 3.5-1.5-.5q-4-.5-4-3ZM956.5 1196l-1 2-4 2 1-2 4-2ZM332.5 1201l7.5 4.5-1.5-.5q-5.6-.8-6-4ZM947.5 1201l-1 2-4 2 1-2 4-2ZM932.5 1209l-1 2-11 5v-1l12-6ZM369.5 1220l5.5 2.5-1.5.5-4-2v-1ZM907.5 1221l1.5.5-5.5 2.5v-1l4-2ZM380.5 1225l3.5 1.5-1.5.5-2-2ZM898.5 1225l1.5.5-5.5 2.5v-1l4-2ZM387.5 1228l3.5 1.5-1.5.5-2-2ZM889.5 1229l1.5.5-3.5 1.5v-1l2-1ZM394.5 1231l3.5 1.5-1.5.5-2-2ZM884.5 1231l1.5.5-3.5 1.5v-1l2-1ZM399.5 1233l3.5 1.5-1.5.5-2-2ZM404.5 1235l3.5 1.5-1.5.5-2-2ZM409.5 1237l3.5 1.5-1.5.5-2-2ZM869.5 1237l1.5.5-3.5 1.5v-1l2-1ZM417.5 1240l3.5 1.5-1.5.5-2-2ZM861.5 1240l1.5.5-3.5 1.5v-1l2-1ZM844.5 1246l1.5.5-7.5 2.5v-1l6-2ZM452.5 1252l2.5.5-2.5.5v-1ZM822.5 1253l2.5.5-2.5.5v-1ZM462.5 1255l2.5.5-2.5.5v-1ZM815.5 1255l2.5.5-2.5.5v-1ZM469.5 1257l2.5.5-2.5.5v-1ZM808.5 1257l2.5.5-2.5.5v-1ZM473.5 1258l2.5.5-2.5.5v-1ZM804.5 1258l2.5.5-2.5.5v-1ZM489.5 1262l2.5.5-2.5.5v-1ZM788.5 1262l2.5.5-2.5.5v-1ZM493.5 1263l2.5.5-2.5.5v-1ZM784.5 1263l2.5.5-2.5.5v-1ZM497.5 1264l2.5.5-2.5.5v-1ZM780.5 1264l2.5.5-2.5.5v-1ZM502.5 1265l2.5.5-2.5.5v-1ZM775.5 1265l2.5.5-2.5.5v-1ZM506.5 1266l3.5.5-3.5.5v-1ZM770.5 1266l3.5.5-3.5.5v-1ZM511.5 1267l2.5.5-2.5.5v-1ZM765.5 1267l3.5.5-3.5.5v-1ZM516.5 1268l3.5.5-3.5.5v-1ZM760.5 1268l3.5.5-3.5.5v-1ZM521.5 1269l3.5.5-3.5.5v-1ZM755.5 1269l3.5.5-3.5.5v-1ZM527.5 1270l3.5.5-3.5.5v-1ZM749.5 1270l3.5.5-3.5.5v-1ZM533.5 1271l3.5.5-3.5.5v-1ZM743.5 1271l4.5.5-4.5.5v-1ZM539.5 1272l3.5.5-3.5.5v-1ZM737.5 1272l3.5.5-3.5.5v-1ZM545.5 1273l4.5.5-4.5.5v-1ZM730.5 1273l4.5.5-4.5.5v-1ZM552.5 1274l4.5.5-4.5.5v-1ZM722.5 1274l5.5.5-5.5.5v-1ZM560.5 1275l4.5.5-4.5.5v-1ZM714.5 1275l5.5.5-5.5.5v-1ZM568.5 1276l6.5.5-6.5.5v-1ZM705.5 1276l6.5.5-6.5.5v-1ZM578.5 1277l6.5.5-6.5.5v-1ZM694.5 1277l7.5.5-7.5.5v-1ZM590.5 1278l8.5.5-8.5.5v-1ZM681.5 1278l8.5.5-8.5.5v-1ZM605.5 1279l14.5.5-14.5.5v-1ZM660.5 1279l14.5.5-14.5.5v-1Z"/><path fill="#EFF4F6" stroke="#EFF4F6" opacity=".996" d="m620.5 0 10.5.5-10.5.5V0ZM649.5 0l10.5.5-10.5.5V0ZM599.5 1l3.5.5-3.5.5V1ZM677.5 1l3.5.5-3.5.5V1ZM586.5 2l2.5.5-2.5.5V2ZM692.5 2l2.5.5-2.5.5V2ZM712.5 4l2.5.5-2.5.5V4ZM305.5 94l-1 2 1-2ZM297.5 99l-1 2 1-2ZM276.5 113l-1 2 1-2ZM273.5 115l-1 2 1-2ZM1006.5 115l1 2-1-2ZM266.5 120l-1 2 1-2ZM1013.5 120l1 2-1-2ZM262.5 123l-1 2 1-2ZM1017.5 123l1 2-1-2ZM258.5 126l-1 2 1-2ZM254.5 129l-1 2 1-2ZM250.5 132l-1 2 1-2ZM1029.5 132l1 2-1-2ZM246.5 135l-1 2 1-2ZM1033.5 135l1 2-1-2ZM241.5 139l-1 2 1-2ZM1038.5 139l1 2-1-2ZM236.5 143l-2 3 2-3ZM1043.5 143l2 3-2-3ZM230.5 148l-2 3 2-3ZM1049.5 148l1 2-1-2ZM224.5 153l-2 3 2-3ZM1055.5 153l2 3-2-3ZM217.5 159l-4 5 4-5ZM1063.5 160l3 4-3-4ZM207.5 168l-6 7 6-7ZM1072.5 168l6 7-6-7ZM174.5 201l-6 7 6-7ZM1105.5 201l6 7-6-7ZM163.5 213l-3 4 3-4ZM1116.5 213l4 5-4-5ZM155.5 222l-2 3 2-3ZM1124.5 222l2 3-2-3ZM1129.5 228l2 3-2-3ZM149.5 229l-1 2 1-2ZM145.5 234l-2 3 2-3ZM1134.5 234l2 3-2-3ZM140.5 240l-1 2 1-2ZM1139.5 240l1 2-1-2ZM136.5 245l-1 2 1-2ZM1143.5 245l1 2-1-2ZM133.5 249l-1 2 1-2ZM1146.5 249l1 2-1-2ZM1149.5 253l1 2-1-2ZM1152.5 257l1 2-1-2ZM124.5 261l-1 2 1-2ZM1155.5 261l1 2-1-2ZM121.5 265l-1 2 1-2ZM1158.5 265l1 2-1-2ZM116.5 272l-1 2 1-2ZM1163.5 272l1 2-1-2ZM1165.5 275l1 2-1-2ZM1179.5 296l1 2-1-2ZM1184.5 304l1 2-1-2ZM4.5 565l.5 2.5H4l.5-2.5ZM2.5 585l.5 2.5H2l.5-2.5ZM1277.5 586l.5 2.5h-1l.5-2.5ZM1.5 599l.5 3.5H1l.5-3.5ZM1278.5 599l.5 3.5h-1l.5-3.5ZM.5 620l.5 10.5H0L.5 620ZM1279.5 620l.5 10.5h-1l.5-10.5ZM.5 649l.5 10.5H0L.5 649ZM1279.5 649l.5 10.5h-1l.5-10.5ZM1.5 677l.5 3.5H1l.5-3.5ZM1278.5 677l.5 3.5h-1l.5-3.5ZM2.5 691l.5 2.5H2l.5-2.5ZM1277.5 692l.5 2.5h-1l.5-2.5ZM1275.5 712l.5 2.5h-1l.5-2.5ZM94.5 974l1 2-1-2ZM99.5 982l1 2-1-2ZM113.5 1003l1 2-1-2ZM115.5 1006l1 2-1-2ZM1164.5 1006l-1 2 1-2ZM120.5 1013l1 2-1-2ZM1159.5 1013l-1 2 1-2ZM123.5 1017l1 2-1-2ZM1156.5 1017l-1 2 1-2ZM126.5 1021l1 2-1-2ZM129.5 1025l1 2-1-2ZM132.5 1029l1 2-1-2ZM1147.5 1029l-1 2 1-2ZM135.5 1033l1 2-1-2ZM1144.5 1033l-1 2 1-2ZM139.5 1038l1 2-1-2ZM1140.5 1038l-1 2 1-2ZM143.5 1043l2 3-2-3ZM1136.5 1043l-2 3 2-3ZM148.5 1049l2 3-2-3ZM1131.5 1049l-1 2 1-2ZM153.5 1055l2 3-2-3ZM1126.5 1055l-2 3 2-3ZM159.5 1062l4 5-4-5ZM1119.5 1063l-3 4 3-4ZM168.5 1072l6 7-6-7ZM1111.5 1072l-6 7 6-7ZM1079.5 1104l-7 8 7-8ZM201.5 1105l6 7-6-7ZM213.5 1116l3 4-3-4ZM1066.5 1116l-4 5 4-5ZM222.5 1124l2 3-2-3ZM1057.5 1124l-2 3 2-3ZM1051.5 1129l-2 3 2-3ZM229.5 1130l1 2-1-2ZM234.5 1134l2 3-2-3ZM1045.5 1134l-2 3 2-3ZM240.5 1139l1 2-1-2ZM1039.5 1139l-1 2 1-2ZM245.5 1143l1 2-1-2ZM1034.5 1143l-1 2 1-2ZM249.5 1146l1 2-1-2ZM1030.5 1146l-1 2 1-2ZM1026.5 1149l-1 2 1-2ZM1022.5 1152l-1 2 1-2ZM261.5 1155l1 2-1-2ZM1018.5 1155l-1 2 1-2ZM265.5 1158l1 2-1-2ZM1014.5 1158l-1 2 1-2ZM272.5 1163l1 2-1-2ZM1007.5 1163l-1 2 1-2ZM1004.5 1165l-1 2 1-2ZM983.5 1179l-1 2 1-2ZM975.5 1184l-1 2 1-2ZM565.5 1275l2.5.5-2.5.5v-1ZM585.5 1277l2.5.5-2.5.5v-1ZM691.5 1277l2.5.5-2.5.5v-1ZM599.5 1278l3.5.5-3.5.5v-1ZM677.5 1278l3.5.5-3.5.5v-1ZM620.5 1279l10.5.5-10.5.5v-1ZM649.5 1279l10.5.5-10.5.5v-1Z"/><path fill="#EFF4F6" stroke="#EFF4F6" d="m631.5 0 60 2 1 1 28 2 1 1h6l1 1 30 4 66 16 59 21q131.3 55.8 221.5 152.5 82.4 86.1 131 206l19 56 14 59 4 30 1 1v6l1 1 1 17 1 1 1 25 1 1 1 45-1 1-1 42-1 1-2 28-1 1-2 20-6 32-13 51q-11.7 38.3-27 73-54.6 121.4-145.5 206.5-86.3 83.2-207 132l-56 19-59 14-30 4-1 1h-6l-1 1-17 1-1 1-25 1-1 1-45 1-1-1-42-1-1-1-28-2-1-1-20-2-32-6-51-13q-38.3-11.7-73-27-122-55-207.5-146.5-82.4-86.1-131-206l-19-56-14-59-4-30-1-1v-6l-1-1-1-17-1-1-1-25-1-1-1-45 1-1 1-42 1-1 2-28 1-1 2-20 6-32 13-51q11.7-38.3 27-73 55-122 146.5-207.5 84.3-80.7 201-129l61-21 59-14 30-4 1-1h6l1-1 17-1 1-1 25-1 1-1h27l1-1ZM215 334v612h115V698h11l1-1h203l48-113-29-1-1-1H330V334H215Zm499 0L458 945h115l256-609v-2H714Zm136 1-64 144v4l3 9 73 205H739l-1 1h-44l-47 112 1 2h255q24 64 46 133l2 1h113l1-1-190-541-25-69Z"/><path fill="#2A61CC" stroke="#2A61CC" d="M215 334h115v248h232.5l1 1 29.5.5L544.5 697h-203l-1 1H330v248H215V334ZM714 334h114.5l.5 1.5L573 945l-115-.5L714 334ZM849.5 335l25.5 68.5 190 541-1.5 1.5h-113l-1.5-1.5q-21.7-68.1-46-132.5H647.5l-.5-2.5L694 698h43.5l1-1H862l-73-205.5-3-9v-4L849.5 335Z"/></svg>