<svg width="1280" height="1280" viewBox="0 0 1280 1280" fill="none" xmlns="http://www.w3.org/2000/svg">
<path d="M0 180H173.656V553.215L569.682 554.03C566.42 558.919 493.656 735.545 496.51 726.174L173.656 726.785V1100H0V180ZM366.064 1099.41C367.148 1094.79 757.401 166.962 752.241 180.269L925.35 180C925.35 180 533.442 1113.36 538.611 1098.97L366.064 1099.41ZM955.516 180C958.679 184.091 1280 1100 1280 1100H1106.34C1106.34 1100 1037.5 898.456 1034.87 898.456L649.783 898.725L722.099 727.274L974.268 725.97L859.068 400.018L955.516 180Z" fill="#2A61CC"/>
</svg>
